# xmcd
#
# Track frame offsets:
#	750
#	5958
#	23744
#	48425
#	63272
#	79876
#	101744
#	122505
#	130265
#	149460
#	169072
#	190255
#	211052
#	231605
#	267477
#
# Disc length: 3574 seconds
#
# Revision: 1
# Processed by: cddbd v1.5.2PL0 Copyright (c) Steve Scherf et al.
# Submitted via: audiograbber 1.83.01
#
DISCID=da0dec0f
DTITLE=J-Shin - Born to sing
DYEAR=2003
DGENRE=R&B
TTITLE0=Don´t wanna fight
TTITLE1=What you talkin´ about
TTITLE2=Something goin´ on
TTITLE3=Hooked on you
TTITLE4=Take no more
TTITLE5=May be I
TTITLE6=What´s on your mind
TTITLE7=Emotional (Interlude)
TTITLE8=Emotional
TTITLE9=Seperated
TTITLE10=That kinda man
TTITLE11=Why you lie
TTITLE12=Call it out
TTITLE13=Something goin´ on (Remix)
TTITLE14=Daten-CD
EXTD=
EXTT0=
EXTT1=
EXTT2=
EXTT3=
EXTT4=
EXTT5=
EXTT6=
EXTT7=
EXTT8=
EXTT9=
EXTT10=
EXTT11=
EXTT12=
EXTT13=
EXTT14=
PLAYORDER=
